<?xml version="1.0" encoding="utf-8"?>
<svg version="1.1" xmlns:xlink="http://www.w3.org/1999/xlink" width="40px" height="50px" xmlns="http://www.w3.org/2000/svg">
  <defs>
    <filter x="11px" y="12px" width="40px" height="50px" filterUnits="userSpaceOnUse" id="filter359">
      <feOffset dx="1" dy="1" in="SourceAlpha" result="shadowOffsetInner" />
      <feGaussianBlur stdDeviation="2.5" in="shadowOffsetInner" result="shadowGaussian" />
      <feComposite in2="shadowGaussian" operator="atop" in="SourceAlpha" result="shadowComposite" />
      <feColorMatrix type="matrix" values="0 0 0 0 0  0 0 0 0 0  0 0 0 0 0  0 0 0 0.698039215686274 0  " in="shadowComposite" />
    </filter>
    <g id="widget360">
      <path d="M 30 55.0369284683536  C 24.2 45.4073405959099  15.5 39.6295878724437  15.5 30  C 15.5 24.9857142857143  18.4 16.5  30 16.5  C 41.6 16.5  44.5 24.9857142857143  44.5 30  C 44.5 39.6295878724437  35.8 45.4073405959099  30 55.0369284683536  Z " fill-rule="nonzero" fill="#0000bf" stroke="none" />
      <path d="M 30 56  C 24 46  15 40  15 30  C 15 24.8  18 16  30 16  C 42 16  45 24.8  45 30  C 45 40  36 46  30 56  Z M 30 54.0738569367072  C 35.6 44.8146811918198  44 39.2591757448874  44 30  C 44 25.1714285714286  41.2 17  30 17  C 18.8 17  16 25.1714285714286  16 30  C 16 39.2591757448874  24.4 44.8146811918198  30 54.0738569367072  Z " fill-rule="nonzero" fill="#ffffff" stroke="none" />
    </g>
  </defs>
  <g transform="matrix(1 0 0 1 -11 -12 )">
    <use xlink:href="#widget360" filter="url(#filter359)" />
    <use xlink:href="#widget360" />
  </g>
</svg>