<?xml version="1.0" encoding="utf-8"?>
<svg version="1.1" xmlns:xlink="http://www.w3.org/1999/xlink" width="21px" height="21px" xmlns="http://www.w3.org/2000/svg">
  <defs>
    <filter x="29px" y="211px" width="21px" height="21px" filterUnits="userSpaceOnUse" id="filter352">
      <feOffset dx="1" dy="1" in="SourceAlpha" result="shadowOffsetInner" />
      <feGaussianBlur stdDeviation="2.5" in="shadowOffsetInner" result="shadowGaussian" />
      <feComposite in2="shadowGaussian" operator="atop" in="SourceAlpha" result="shadowComposite" />
      <feColorMatrix type="matrix" values="0 0 0 0 0  0 0 0 0 0  0 0 0 0 0  0 0 0 0.698039215686274 0  " in="shadowComposite" />
    </filter>
    <g id="widget353">
      <path d="M 38.5 215  C 41.58 215  44 217.42  44 220.5  C 44 223.58  41.58 226  38.5 226  C 35.42 226  33 223.58  33 220.5  C 33 217.42  35.42 215  38.5 215  Z " fill-rule="nonzero" fill="#009dd9" stroke="none" />
      <path d="M 38.5 215.5  C 41.3 215.5  43.5 217.7  43.5 220.5  C 43.5 223.3  41.3 225.5  38.5 225.5  C 35.7 225.5  33.5 223.3  33.5 220.5  C 33.5 217.7  35.7 215.5  38.5 215.5  Z " stroke-width="1" stroke="#ffffff" fill="none" />
    </g>
  </defs>
  <g transform="matrix(1 0 0 1 -29 -211 )">
    <use xlink:href="#widget353" filter="url(#filter352)" />
    <use xlink:href="#widget353" />
  </g>
</svg>