<?xml version="1.0" encoding="utf-8"?>
<svg version="1.1" xmlns:xlink="http://www.w3.org/1999/xlink" width="25px" height="29px" xmlns="http://www.w3.org/2000/svg">
  <defs>
    <filter x="167px" y="197px" width="25px" height="29px" filterUnits="userSpaceOnUse" id="filter354">
      <feOffset dx="1" dy="1" in="SourceAlpha" result="shadowOffsetInner" />
      <feGaussianBlur stdDeviation="2.5" in="shadowOffsetInner" result="shadowGaussian" />
      <feComposite in2="shadowGaussian" operator="atop" in="SourceAlpha" result="shadowComposite" />
      <feColorMatrix type="matrix" values="0 0 0 0 0  0 0 0 0 0  0 0 0 0 0  0 0 0 0.698039215686274 0  " in="shadowComposite" />
    </filter>
    <g id="widget355">
      <path d="M 178.5 219.069464668747  C 175.7 214.677362873075  171.5 212.042101795672  171.5 207.65  C 171.5 205.365714285714  172.9 201.5  178.5 201.5  C 184.1 201.5  185.5 205.365714285714  185.5 207.65  C 185.5 212.042101795672  181.3 214.677362873075  178.5 219.069464668747  Z " fill-rule="nonzero" fill="#009dd9" stroke="none" />
      <path d="M 178.5 220  C 175.5 215.25  171 212.4  171 207.65  C 171 205.18  172.5 201  178.5 201  C 184.5 201  186 205.18  186 207.65  C 186 212.4  181.5 215.25  178.5 220  Z M 178.5 218.138929337494  C 181.1 214.10472574615  185 211.684203591344  185 207.65  C 185 205.551428571429  183.7 202  178.5 202  C 173.3 202  172 205.551428571429  172 207.65  C 172 211.684203591344  175.9 214.10472574615  178.5 218.138929337494  Z " fill-rule="nonzero" fill="#ffffff" stroke="none" />
    </g>
  </defs>
  <g transform="matrix(1 0 0 1 -167 -197 )">
    <use xlink:href="#widget355" filter="url(#filter354)" />
    <use xlink:href="#widget355" />
  </g>
</svg>