<?xml version="1.0" encoding="utf-8"?>
<svg version="1.1" xmlns:xlink="http://www.w3.org/1999/xlink" width="12px" height="12px" viewBox="70 694  12 12" xmlns="http://www.w3.org/2000/svg">
  <path d="M 76 694  C 79.36 694  82 696.64  82 700  C 82 703.36  79.36 706  76 706  C 72.64 706  70 703.36  70 700  C 70 696.64  72.64 694  76 694  Z " fill-rule="nonzero" fill="#ffffff" stroke="none" />
  <path d="M 76 694.5  C 79.08 694.5  81.5 696.92  81.5 700  C 81.5 703.08  79.08 705.5  76 705.5  C 72.92 705.5  70.5 703.08  70.5 700  C 70.5 696.92  72.92 694.5  76 694.5  Z " stroke-width="1" stroke="#797979" fill="none" />
  <path d="M 76 703  C 74.32 703  73 701.68  73 700  C 73 698.32  74.32 697  76 697  C 77.68 697  79 698.32  79 700  C 79 701.68  77.68 703  76 703  " fill-rule="nonzero" fill="#797979" stroke="none" />
</svg>