<?xml version="1.0" encoding="utf-8"?>
<svg version="1.1" xmlns:xlink="http://www.w3.org/1999/xlink" width="12px" height="12px" viewBox="340 694  12 12" xmlns="http://www.w3.org/2000/svg">
  <path d="M 346 694  C 349.36 694  352 696.64  352 700  C 352 703.36  349.36 706  346 706  C 342.64 706  340 703.36  340 700  C 340 696.64  342.64 694  346 694  Z " fill-rule="nonzero" fill="#ffffff" stroke="none" />
  <path d="M 346 694.5  C 349.08 694.5  351.5 696.92  351.5 700  C 351.5 703.08  349.08 705.5  346 705.5  C 342.92 705.5  340.5 703.08  340.5 700  C 340.5 696.92  342.92 694.5  346 694.5  Z " stroke-width="1" stroke="#797979" fill="none" />
  <path d="M 346 703  C 344.32 703  343 701.68  343 700  C 343 698.32  344.32 697  346 697  C 347.68 697  349 698.32  349 700  C 349 701.68  347.68 703  346 703  " fill-rule="nonzero" fill="#797979" stroke="none" />
</svg>